<svg xmlns="http://www.w3.org/2000/svg" xmlns:xlink="http://www.w3.org/1999/xlink" width="400" height="400" viewBox="0 0 400 400"><defs><linearGradient id="gradient-21"><stop stop-color="#834f3a" offset="0"/><stop stop-color="#dba174" offset="0.5"/><stop stop-color="#834F3A" offset="1"/></linearGradient></defs>
<rect data-name="background" width="100%" height="100%" fill="none"/><g data-name="icon" fill="url(#gradient-21)" data="id:7110315" transform="translate(101.77365105049985,58.05494235631904) scale(1.964507344707917)">
    
 <path d="m83.059 51.742 0.027344-26.227h-32.793l-10.125 3.6992c-0.1875 0.082031-0.39453 0.13281-0.61328 0.13281h-33.051v17.902c0 0.82812-0.67188 1.5-1.5 1.5s-1.5-0.67188-1.5-1.5v-27.641c0-1.4609 0.60156-2.7969 1.5664-3.7656 0.97656-0.97656 2.3125-1.5781 3.7773-1.5781h71.902c1.4766 0.007813 2.8125 0.60547 3.7734 1.5703 0.96875 0.96875 1.5703 2.3047 1.5703 3.7734l-0.042969 33.152 9.4375 3.2188c0.78125 0.26562 1.2031 1.1172 0.9375 1.8984-0.16016 0.47656-0.54297 0.82031-0.99219 0.95312l-6.8164 2.0508 3.3203 3.3203c0.58594 0.58594 0.58594 1.5352 0 2.1211l-6.8672 6.8633c-0.58594 0.58594-1.5352 0.58594-2.1211 0l-3.3203-3.3203-2.0508 6.8164c-0.23438 0.79297-1.0703 1.2422-1.8633 1.0078-0.48438-0.14453-0.83984-0.51172-0.98828-0.95312l-3.1484-9.2305h-15.805l1.9609 6.8672h2.8984c1.4688 0 2.8008 0.60156 3.7695 1.5664 0.97266 0.97266 1.5742 2.3086 1.5742 3.7734v4.5195c0 0.82812-0.67187 1.5-1.5 1.5h-39.359c-0.82813 0-1.5-0.67188-1.5-1.5v-4.5195c0-1.4648 0.60156-2.8008 1.5664-3.7695 0.97266-0.97266 2.3086-1.5742 3.7734-1.5742h2.8984l1.9609-6.8672h-24.973c-1.4688 0-2.8086-0.60156-3.7734-1.5703-0.96875-0.96875-1.5703-2.3008-1.5703-3.7734v-3.8516c0-0.82812 0.67188-1.5 1.5-1.5s1.5 0.67188 1.5 1.5v3.8516c0 0.64062 0.26562 1.2266 0.69141 1.6523 0.42578 0.42578 1.0117 0.69141 1.6523 0.69141h61.707l-5.5938-16.395c-0.26562-0.78125 0.15625-1.6328 0.9375-1.8984 0.32422-0.10938 0.66016-0.10156 0.96094 0l16.203 5.5273zm-58.031-6.3125h7.2734c-0.31641-1.8594-1.2031-3.5234-2.4766-4.7969-1.2734-1.2734-2.9375-2.1641-4.7969-2.4766zm7.2734 3h-8.1523l-5.7656 5.7656c1.4531 1.0273 3.2266 1.6328 5.1445 1.6328 2.4609 0 4.6875-0.99609 6.2969-2.6055 1.2734-1.2734 2.1641-2.9375 2.4766-4.7969zm-17.121 6.9766-0.066407-0.0625-0.0625-0.070312c-2.1172-2.1523-3.4219-5.1016-3.4219-8.3477 0-3.2812 1.332-6.2578 3.4844-8.4102 2.1484-2.1484 5.1055-3.4805 8.3711-3.4922h0.085937c3.2617 0.011718 6.2227 1.3438 8.3633 3.4844 2.1484 2.1484 3.4805 5.1055 3.4922 8.3711v0.085938c-0.011719 3.2617-1.3438 6.2227-3.4844 8.3633-2.1602 2.1562-5.1328 3.4922-8.4141 3.4922-3.25 0-6.1992-1.3086-8.3477-3.4258zm1.0781-3.332 5.7656-5.7656v-8.1523c-1.8594 0.31641-3.5234 1.2031-4.7969 2.4766-1.6094 1.6094-2.6055 3.8359-2.6055 6.2969 0 1.918 0.60547 3.6914 1.6328 5.1445zm69.09 9.793-3.6484 1.0977-1.0977 3.6484 3.3984 3.3984 4.7461-4.7422-3.3984-3.3984zm-5.1445-7.9297-11.43-3.8984c2.4258 7.1094 4.8516 14.215 7.2773 21.324 1.0039-3.3438 2.0117-6.6836 3.0156-10.027 0.14062-0.46875 0.50391-0.85938 1.0078-1.0078 3.3438-1.0039 6.6836-2.0078 10.027-3.0156l-9.8945-3.375zm-38.27 5.4727c-0.82812 0-1.5-0.67188-1.5-1.5s0.67188-1.5 1.5-1.5h17.27c0.82812 0 1.5 0.67188 1.5 1.5s-0.67188 1.5-1.5 1.5zm0-5.875c-0.82812 0-1.5-0.67188-1.5-1.5s0.67188-1.5 1.5-1.5h10.875c0.82812 0 1.5 0.67188 1.5 1.5s-0.67188 1.5-1.5 1.5zm0-9.793c-0.82812 0-1.5-0.67188-1.5-1.5 0-0.82813 0.67188-1.5 1.5-1.5h17.27c0.82812 0 1.5 0.67187 1.5 1.5 0 0.82812-0.67188 1.5-1.5 1.5zm0-5.875c-0.82812 0-1.5-0.67188-1.5-1.5 0-0.82813 0.67188-1.5 1.5-1.5h10.875c0.82812 0 1.5 0.67187 1.5 1.5 0 0.82812-0.67188 1.5-1.5 1.5zm-19.055-14.348c-0.83203 0-1.5039-0.67188-1.5039-1.5s0.67188-1.5 1.5-1.5c0.83984 0 1.5117 0.67188 1.5117 1.5s-0.67188 1.5-1.5078 1.5zm-5.875 0c-0.83203 0-1.5078-0.67188-1.5078-1.5s0.67188-1.5 1.5-1.5c0.83984 0 1.5117 0.67188 1.5117 1.5s-0.67187 1.5-1.5078 1.5zm-5.875 0c-0.83203 0-1.5078-0.67188-1.5078-1.5s0.67188-1.5 1.5-1.5c0.83984 0 1.5117 0.67188 1.5117 1.5s-0.67187 1.5-1.5078 1.5zm71.957-1 0.003906-2.9062c-0.007813-0.64062-0.27344-1.2305-0.69531-1.6523-0.42578-0.42578-1.0156-0.69531-1.6523-0.69531l-71.902 0.007813c-0.64453 0-1.2344 0.26172-1.6523 0.68359-0.42578 0.42578-0.69141 1.0117-0.69141 1.6602v6.7383h32.797l10.23-3.7383c0.16797-0.0625 0.33984-0.089844 0.51172-0.089844l33.051-0.003906zm-46.156 44.992-1.9609 6.8672h19.648l-1.9609-6.8672zm-33.434-14.84c0-0.82812 0.67188-1.5 1.5-1.5s1.5 0.67188 1.5 1.5v0.22266c0 0.82812-0.67188 1.5-1.5 1.5s-1.5-0.67188-1.5-1.5zm57.129 24.703h-31.676c-0.64453 0-1.2344 0.26562-1.6562 0.6875s-0.6875 1.0117-0.6875 1.6562v3.0195h36.359v-3.0195c0-0.64453-0.26562-1.2344-0.6875-1.6562s-1.0117-0.6875-1.6562-0.6875z"/>

    </g><g data-name="business_name" fill="#ffffff" data="id:166" transform="translate(63.9818362492421,231.50573131996558) scale(1.327265608388772)"><path d="M1.4,40l0-1.56l3.8,0l0-23.32l-3.8,0l0-1.56l21.72,0l-1.6,8.16l-1.4,0l-0.24-4.84c-0.08-1.48-0.28-1.64-1.2-1.64l-8.6,0l0,10.8l5.64,0l0-3.44l1.88,0l0,9l-1.88,0l0-3.84l-5.64,0l0,10.56l7.64,0c1.6,0,2.32-0.4,3.88-6.88l1.44,0s-0.32,4.32-0.28,6.48l0,2.08l-21.36,0z M26.16,40l0-1.56l3.08,0l0-14.96l-3.44,0l0-1.56l7.6,0l0,4.36l0.08,0c0.72-2.12,2.44-4.92,5.72-4.92c2.12,0,4,1.12,4,3.2c0,1.8-1.44,3.16-4.04,3.08c0.08-0.76,0.08-1.44,0.08-2.12c0-1.24-0.24-2.08-1.12-2.08c-2.28,0-4.44,5.04-4.44,8.96l0,6.04l3.44,0l0,1.56l-10.96,0z M44.36,40l0-1.56l3.08,0l0-14.96l-3.44,0l0-1.56l7.88,0l0,16.52l3.08,0l0,1.56l-10.6,0z M46.72,15.44c0-1.48,1.2-2.68,2.72-2.68c1.48,0,2.68,1.2,2.68,2.68s-1.2,2.68-2.68,2.68c-1.52,0-2.72-1.2-2.72-2.68z M56.2,40l0-1.56l3.04,0l0-25.6l-3.4,0l0-1.56l7.88,0l0,18l1.48,0l6-5.8l-2.64,0l0-1.56l8.2,0l0,1.56l-3.04,0l-5.16,5l7.52,9.96l1.88,0l0,1.56l-9.16,0l0-1.56l1.88,0l-5.44-7.52l-1.52,0l0,7.52l2.36,0l0,1.56l-9.88,0z  M88.92,40l0-1.56l3.76,0l0-21.76c-0.88-1.04-1.48-1.56-3.72-1.56l-1.04,0l0-1.56l8.52,0l14.32,18.68l0-17.12l-3.76,0l0-1.56l9.44,0l0,1.56l-3.76,0l0,25.08l-1.84,0l-16.24-21.04l0,19.28l3.76,0l0,1.56l-9.44,0z M118.6,40l0-1.56l3.08,0l0-14.96l-3.44,0l0-1.56l7.88,0l0,16.52l3.08,0l0,1.56l-10.6,0z M120.96,15.44c0-1.48,1.2-2.68,2.72-2.68c1.48,0,2.68,1.2,2.68,2.68s-1.2,2.68-2.68,2.68c-1.52,0-2.72-1.2-2.72-2.68z M139.48,40.4l-7.04-16.92l-2.4,0l0-1.56l10.12,0l0,1.56l-2.96,0l4.52,11.04l4.48-11.04l-2.84,0l0-1.56l7.2,0l0,1.56l-2.44,0l-6.92,16.92l-1.72,0z M151.92,35.8c0-4.48,5.72-6.04,10.88-6.04l0-3.56c0-2.4-0.64-3.44-3-3.44c-2.4,0-3.24,1.08-3.24,3.32c0,0.64,0.04,1.2,0.12,1.84c-2.8,0.12-4-1.16-4-2.76c0-2.32,2.68-3.8,7.4-3.8c5.08,0,7.2,1.6,7.2,5.72l0,9.84c0,0.96,0.28,1.44,0.8,1.44c1.08,0,1.56-1.76,1.72-2.36l1.56,0.48c-0.32,1.48-1.52,3.92-4.36,3.92c-1.88,0-3.28-0.92-3.64-2.88l-0.08,0c-1.04,1.48-2.76,3.04-5.64,3.04s-5.72-1.56-5.72-4.76z M156.56,35.8c0,1.84,0.76,2.84,2.12,2.84c1.96,0,4.12-2.2,4.12-4.28l0-2.92c-4.24,0-6.24,1.32-6.24,4.36z M171.64,40l0-1.56l3.04,0l0-25.6l-3.4,0l0-1.56l7.88,0l0,27.16l3.08,0l0,1.56l-10.6,0z M184.12,35.8c0-4.48,5.72-6.04,10.88-6.04l0-3.56c0-2.4-0.64-3.44-3-3.44c-2.4,0-3.24,1.08-3.24,3.32c0,0.64,0.04,1.2,0.12,1.84c-2.8,0.12-4-1.16-4-2.76c0-2.32,2.68-3.8,7.4-3.8c5.08,0,7.2,1.6,7.2,5.72l0,9.84c0,0.96,0.28,1.44,0.8,1.44c1.08,0,1.56-1.76,1.72-2.36l1.56,0.48c-0.32,1.48-1.52,3.92-4.36,3.92c-1.88,0-3.28-0.92-3.64-2.88l-0.08,0c-1.04,1.48-2.76,3.04-5.64,3.04s-5.72-1.56-5.72-4.76z M188.76,35.8c0,1.84,0.76,2.84,2.12,2.84c1.96,0,4.12-2.2,4.12-4.28l0-2.92c-4.24,0-6.24,1.32-6.24,4.36z"/></g><g data-name="slogan" fill="url(#gradient-21)" data="id:167" transform="translate(104.3804223678196,287.21196447735) scale(0.4884244400426634)"><path d="M3.49609375,17.8515625l15.95703125,0l0,2.8515625l-13.06640625,0l0,9.0625l7.75390625,0l0,2.8515625l-7.75390625,0l0,14.19921875l-2.890625,0l0-28.96484375z M24.08203125,24.921875l2.7734375,0l0,10q0,3.671875,0.390625,5.0390625q0.5859375,1.97265625,2.24609375,3.115234375t3.984375,1.142578125q2.3046875,0,3.90625-1.11328125t2.20703125-2.9296875q0.4296875-1.23046875,0.4296875-5.25390625l0-10l2.8125,0l0,10.52734375q0,4.43359375-1.044921875,6.669921875t-3.115234375,3.49609375t-5.1953125,1.259765625q-3.14453125,0-5.234375-1.259765625t-3.125-3.53515625t-1.03515625-6.845703125l0-10.3125z M48.49609375,17.1484375l2.7734375,0l0,29.70703125l-2.7734375,0l0-29.70703125z M56.54296875,17.1484375l2.7734375,0l0,29.70703125l-2.7734375,0l0-29.70703125z  M86.5234375,27.265625l-1.7578125,1.8359375q-2.2265625-2.1484375-4.31640625-2.1484375q-1.34765625,0-2.3046875,0.87890625t-0.95703125,2.08984375q0,1.015625,0.80078125,1.953125q0.78125,0.99609375,3.30078125,2.28515625q3.0859375,1.58203125,4.1796875,3.06640625q1.07421875,1.50390625,1.07421875,3.37890625q0,2.6171875-1.845703125,4.443359375t-4.619140625,1.826171875q-1.85546875,0-3.544921875-0.791015625t-2.783203125-2.216796875l1.73828125-1.97265625q2.109375,2.3828125,4.47265625,2.3828125q1.640625,0,2.802734375-1.064453125t1.162109375-2.490234375q0-1.19140625-0.76171875-2.109375t-3.45703125-2.3046875q-2.91015625-1.46484375-3.9453125-2.94921875q-1.0546875-1.4453125-1.0546875-3.3203125q0-2.44140625,1.669921875-4.052734375t4.189453125-1.611328125q2.94921875,0,5.95703125,2.890625z M99.1015625,43.828125q-2.03125,1.09375-3.984375,0.17578125q-2.3828125-1.81640625-2.265625-5.17578125l0-9.0625l5.078125,0l0-2.36328125l-5.09765625,0l0-10.3515625l-2.7734375,0l0,22.24609375q-0.0390625,2.34375,1.07421875,4.296875q1.8359375,3.10546875,5,3.28125q1.6796875,0.05859375,3.828125-0.76171875q-0.33203125-0.8203125-0.859375-2.28515625z M114.47265625,24.375q4.94140625,0,8.203125,3.57421875q3.0078125,3.26171875,3.0078125,7.75390625q0.0390625,11.09375,0,11.26953125l-2.91015625,0l0-4.86328125q-2.28515625,4.2578125-8.30078125,4.765625q-4.921875,0-8.037109375-3.349609375t-3.115234375-7.822265625q0-4.453125,2.94921875-7.734375q3.26171875-3.59375,8.203125-3.59375z M114.47265625,27.0703125q-3.41796875,0-5.87890625,2.5390625t-2.4609375,6.1328125q0,2.32421875,1.259765625,4.47265625t4.267578125,3.6328125q7.5390625,1.6796875,10.72265625-6.85546875q0.17578125-2.734375-0.5859375-5.234375q-0.546875-1.1328125-1.50390625-2.1484375q-2.40234375-2.5390625-5.8203125-2.5390625z M151.81640625,29.375l-2.1875,1.3671875q-2.83203125-3.7890625-7.734375-3.7890625q-3.92578125,0-6.513671875,2.51953125t-2.587890625,6.1328125q0,2.34375,1.19140625,4.423828125t3.26171875,3.212890625t4.6484375,1.1328125q4.74609375,0,7.734375-3.75l2.1875,1.42578125q-1.54296875,2.3046875-4.130859375,3.564453125t-5.908203125,1.259765625q-5.05859375,0-8.408203125-3.22265625t-3.349609375-7.83203125q0-3.125,1.572265625-5.791015625t4.296875-4.16015625t6.123046875-1.494140625q2.109375,0,4.091796875,0.64453125t3.369140625,1.689453125t2.34375,2.666015625z M157.05078125,17.1484375l2.7734375,0l0,16.9140625l9.90234375-8.6328125l4.0625,0l-8.96484375,8.14453125l9.6484375,13.28125l-3.90625,0l-8.4375-11.5234375l-2.3046875,1.89453125l0,9.62890625l-2.7734375,0l0-29.70703125z  M207.8515625,42.6953125q1.7578125-2.9296875,2.109375-5.76171875q0-20.33203125,0-20.29296875l-2.734375,0l0,11.953125q-1.73828125-2.12890625-3.88671875-3.173828125t-4.70703125-1.044921875q-4.53125,0-7.75390625,3.30078125t-3.22265625,8.0078125q0,4.62890625,3.2421875,7.91015625t7.8125,3.28125q2.6171875,0,4.912109375-1.005859375t4.228515625-3.173828125z M198.9453125,44.23828125q-2.32421875,0-4.267578125-1.142578125t-3.095703125-3.173828125t-1.15234375-4.3359375q0-2.265625,1.162109375-4.345703125t3.125-3.22265625t4.189453125-1.142578125q2.265625,0,4.296875,1.142578125t3.125,3.10546875t1.09375,4.384765625q0,3.73046875-2.4609375,6.23046875t-6.015625,2.5z M233.6328125,39.23828125l2.3046875,1.23046875q-1.11328125,2.24609375-2.6171875,3.61328125t-3.37890625,2.080078125t-4.23828125,0.712890625q-5.234375,0-8.18359375-3.427734375t-2.94921875-7.744140625q0-4.08203125,2.5-7.265625q3.1640625-4.0625,8.49609375-4.0625q5.44921875,0,8.73046875,4.16015625q2.32421875,2.9296875,2.34375,7.3046875l-19.23828125,0q0.078125,3.75,2.3828125,6.142578125t5.68359375,2.392578125q1.640625,0,3.18359375-0.576171875t2.626953125-1.513671875t2.353515625-3.046875z M233.6328125,33.4765625q-0.546875-2.20703125-1.6015625-3.525390625t-2.79296875-2.12890625t-3.65234375-0.810546875q-3.14453125,0-5.41015625,2.03125q-1.640625,1.484375-2.48046875,4.43359375l15.9375,0z M239.74609375,25.46875l2.9296875,0l7.16796875,15.5859375l7.109375-15.5859375l2.94921875,0l-9.8046875,21.42578125l-0.48828125,0z M282.12890625,39.23828125l2.3046875,1.23046875q-1.11328125,2.24609375-2.6171875,3.61328125t-3.37890625,2.080078125t-4.23828125,0.712890625q-5.234375,0-8.18359375-3.427734375t-2.94921875-7.744140625q0-4.08203125,2.5-7.265625q3.1640625-4.0625,8.49609375-4.0625q5.44921875,0,8.73046875,4.16015625q2.32421875,2.9296875,2.34375,7.3046875l-19.23828125,0q0.078125,3.75,2.3828125,6.142578125t5.68359375,2.392578125q1.640625,0,3.18359375-0.576171875t2.626953125-1.513671875t2.353515625-3.046875z M282.12890625,33.4765625q-0.546875-2.20703125-1.6015625-3.525390625t-2.79296875-2.12890625t-3.65234375-0.810546875q-3.14453125,0-5.41015625,2.03125q-1.640625,1.484375-2.48046875,4.43359375l15.9375,0z M289.84375,17.1484375l2.7734375,0l0,29.70703125l-2.7734375,0l0-29.70703125z M308.4375,24.375q4.94140625,0,8.203125,3.57421875q2.94921875,3.28125,2.94921875,7.75390625t-3.125,7.822265625t-8.02734375,3.349609375q-4.921875,0-8.037109375-3.349609375t-3.115234375-7.822265625q0-4.453125,2.94921875-7.734375q3.26171875-3.59375,8.203125-3.59375z M308.4375,27.0703125q-3.41796875,0-5.87890625,2.5390625t-2.4609375,6.1328125q0,2.32421875,1.123046875,4.345703125t3.037109375,3.10546875t4.1796875,1.083984375q2.3046875,0,4.208984375-1.083984375t3.017578125-3.10546875t1.11328125-4.345703125q0-3.59375-2.4609375-6.1328125t-5.87890625-2.5390625z M326.38671875,28.6328125q-1.7578125,2.9296875-2.109375,5.76171875q0,20.33203125,0,20.29296875l2.734375,0l0-11.953125q1.73828125,2.12890625,3.88671875,3.173828125t4.70703125,1.044921875q4.53125,0,7.75390625-3.30078125t3.22265625-8.0078125q0-4.62890625-3.2421875-7.91015625t-7.8125-3.28125q-2.6171875,0-4.912109375,1.005859375t-4.228515625,3.173828125z M335.29296875,27.08984375q2.32421875,0,4.267578125,1.142578125t3.095703125,3.173828125t1.15234375,4.3359375q0,2.265625-1.162109375,4.345703125t-3.125,3.22265625t-4.189453125,1.142578125q-2.265625,0-4.296875-1.142578125t-3.125-3.10546875t-1.09375-4.384765625q0-3.73046875,2.4609375-6.23046875t6.015625-2.5z M370.13671875,39.23828125l2.3046875,1.23046875q-1.11328125,2.24609375-2.6171875,3.61328125t-3.37890625,2.080078125t-4.23828125,0.712890625q-5.234375,0-8.18359375-3.427734375t-2.94921875-7.744140625q0-4.08203125,2.5-7.265625q3.1640625-4.0625,8.49609375-4.0625q5.44921875,0,8.73046875,4.16015625q2.32421875,2.9296875,2.34375,7.3046875l-19.23828125,0q0.078125,3.75,2.3828125,6.142578125t5.68359375,2.392578125q1.640625,0,3.18359375-0.576171875t2.626953125-1.513671875t2.353515625-3.046875z M370.13671875,33.4765625q-0.546875-2.20703125-1.6015625-3.525390625t-2.79296875-2.12890625t-3.65234375-0.810546875q-3.14453125,0-5.41015625,2.03125q-1.640625,1.484375-2.48046875,4.43359375l15.9375,0z M377.2265625,37.05078125l0-2.578125q0.3125-1.93359375,0.8984375-3.14453125q1.3671875-3.359375,3.671875-4.921875t3.828125-1.5625q1.1328125,0,2.421875,0.7421875l-1.42578125,2.3046875q-1.81640625-0.6640625-3.603515625,1.07421875t-2.470703125,3.7890625q-0.5078125,1.81640625-0.5078125,6.81640625l0,7.24609375l-2.8125,0l0-9.765625z"/></g></svg>