<svg xmlns="http://www.w3.org/2000/svg" xmlns:xlink="http://www.w3.org/1999/xlink" width="400" height="400" viewBox="0 0 400 400"><defs><linearGradient id="gradient-21"><stop stop-color="#834f3a" offset="0"/><stop stop-color="#dba174" offset="0.5"/><stop stop-color="#834F3A" offset="1"/></linearGradient></defs><g data-name="icon" fill="url(#gradient-21)" data="id:7110315" transform="translate(6.468397059275892, 6.47628902765387) scale(3.8705933741425453)">
    
 <path d="m83.059 51.742 0.027344-26.227h-32.793l-10.125 3.6992c-0.1875 0.082031-0.39453 0.13281-0.61328 0.13281h-33.051v17.902c0 0.82812-0.67188 1.5-1.5 1.5s-1.5-0.67188-1.5-1.5v-27.641c0-1.4609 0.60156-2.7969 1.5664-3.7656 0.97656-0.97656 2.3125-1.5781 3.7773-1.5781h71.902c1.4766 0.007813 2.8125 0.60547 3.7734 1.5703 0.96875 0.96875 1.5703 2.3047 1.5703 3.7734l-0.042969 33.152 9.4375 3.2188c0.78125 0.26562 1.2031 1.1172 0.9375 1.8984-0.16016 0.47656-0.54297 0.82031-0.99219 0.95312l-6.8164 2.0508 3.3203 3.3203c0.58594 0.58594 0.58594 1.5352 0 2.1211l-6.8672 6.8633c-0.58594 0.58594-1.5352 0.58594-2.1211 0l-3.3203-3.3203-2.0508 6.8164c-0.23438 0.79297-1.0703 1.2422-1.8633 1.0078-0.48438-0.14453-0.83984-0.51172-0.98828-0.95312l-3.1484-9.2305h-15.805l1.9609 6.8672h2.8984c1.4688 0 2.8008 0.60156 3.7695 1.5664 0.97266 0.97266 1.5742 2.3086 1.5742 3.7734v4.5195c0 0.82812-0.67187 1.5-1.5 1.5h-39.359c-0.82813 0-1.5-0.67188-1.5-1.5v-4.5195c0-1.4648 0.60156-2.8008 1.5664-3.7695 0.97266-0.97266 2.3086-1.5742 3.7734-1.5742h2.8984l1.9609-6.8672h-24.973c-1.4688 0-2.8086-0.60156-3.7734-1.5703-0.96875-0.96875-1.5703-2.3008-1.5703-3.7734v-3.8516c0-0.82812 0.67188-1.5 1.5-1.5s1.5 0.67188 1.5 1.5v3.8516c0 0.64062 0.26562 1.2266 0.69141 1.6523 0.42578 0.42578 1.0117 0.69141 1.6523 0.69141h61.707l-5.5938-16.395c-0.26562-0.78125 0.15625-1.6328 0.9375-1.8984 0.32422-0.10938 0.66016-0.10156 0.96094 0l16.203 5.5273zm-58.031-6.3125h7.2734c-0.31641-1.8594-1.2031-3.5234-2.4766-4.7969-1.2734-1.2734-2.9375-2.1641-4.7969-2.4766zm7.2734 3h-8.1523l-5.7656 5.7656c1.4531 1.0273 3.2266 1.6328 5.1445 1.6328 2.4609 0 4.6875-0.99609 6.2969-2.6055 1.2734-1.2734 2.1641-2.9375 2.4766-4.7969zm-17.121 6.9766-0.066407-0.0625-0.0625-0.070312c-2.1172-2.1523-3.4219-5.1016-3.4219-8.3477 0-3.2812 1.332-6.2578 3.4844-8.4102 2.1484-2.1484 5.1055-3.4805 8.3711-3.4922h0.085937c3.2617 0.011718 6.2227 1.3438 8.3633 3.4844 2.1484 2.1484 3.4805 5.1055 3.4922 8.3711v0.085938c-0.011719 3.2617-1.3438 6.2227-3.4844 8.3633-2.1602 2.1562-5.1328 3.4922-8.4141 3.4922-3.25 0-6.1992-1.3086-8.3477-3.4258zm1.0781-3.332 5.7656-5.7656v-8.1523c-1.8594 0.31641-3.5234 1.2031-4.7969 2.4766-1.6094 1.6094-2.6055 3.8359-2.6055 6.2969 0 1.918 0.60547 3.6914 1.6328 5.1445zm69.09 9.793-3.6484 1.0977-1.0977 3.6484 3.3984 3.3984 4.7461-4.7422-3.3984-3.3984zm-5.1445-7.9297-11.43-3.8984c2.4258 7.1094 4.8516 14.215 7.2773 21.324 1.0039-3.3438 2.0117-6.6836 3.0156-10.027 0.14062-0.46875 0.50391-0.85938 1.0078-1.0078 3.3438-1.0039 6.6836-2.0078 10.027-3.0156l-9.8945-3.375zm-38.27 5.4727c-0.82812 0-1.5-0.67188-1.5-1.5s0.67188-1.5 1.5-1.5h17.27c0.82812 0 1.5 0.67188 1.5 1.5s-0.67188 1.5-1.5 1.5zm0-5.875c-0.82812 0-1.5-0.67188-1.5-1.5s0.67188-1.5 1.5-1.5h10.875c0.82812 0 1.5 0.67188 1.5 1.5s-0.67188 1.5-1.5 1.5zm0-9.793c-0.82812 0-1.5-0.67188-1.5-1.5 0-0.82813 0.67188-1.5 1.5-1.5h17.27c0.82812 0 1.5 0.67187 1.5 1.5 0 0.82812-0.67188 1.5-1.5 1.5zm0-5.875c-0.82812 0-1.5-0.67188-1.5-1.5 0-0.82813 0.67188-1.5 1.5-1.5h10.875c0.82812 0 1.5 0.67187 1.5 1.5 0 0.82812-0.67188 1.5-1.5 1.5zm-19.055-14.348c-0.83203 0-1.5039-0.67188-1.5039-1.5s0.67188-1.5 1.5-1.5c0.83984 0 1.5117 0.67188 1.5117 1.5s-0.67188 1.5-1.5078 1.5zm-5.875 0c-0.83203 0-1.5078-0.67188-1.5078-1.5s0.67188-1.5 1.5-1.5c0.83984 0 1.5117 0.67188 1.5117 1.5s-0.67187 1.5-1.5078 1.5zm-5.875 0c-0.83203 0-1.5078-0.67188-1.5078-1.5s0.67188-1.5 1.5-1.5c0.83984 0 1.5117 0.67188 1.5117 1.5s-0.67187 1.5-1.5078 1.5zm71.957-1 0.003906-2.9062c-0.007813-0.64062-0.27344-1.2305-0.69531-1.6523-0.42578-0.42578-1.0156-0.69531-1.6523-0.69531l-71.902 0.007813c-0.64453 0-1.2344 0.26172-1.6523 0.68359-0.42578 0.42578-0.69141 1.0117-0.69141 1.6602v6.7383h32.797l10.23-3.7383c0.16797-0.0625 0.33984-0.089844 0.51172-0.089844l33.051-0.003906zm-46.156 44.992-1.9609 6.8672h19.648l-1.9609-6.8672zm-33.434-14.84c0-0.82812 0.67188-1.5 1.5-1.5s1.5 0.67188 1.5 1.5v0.22266c0 0.82812-0.67188 1.5-1.5 1.5s-1.5-0.67188-1.5-1.5zm57.129 24.703h-31.676c-0.64453 0-1.2344 0.26562-1.6562 0.6875s-0.6875 1.0117-0.6875 1.6562v3.0195h36.359v-3.0195c0-0.64453-0.26562-1.2344-0.6875-1.6562s-1.0117-0.6875-1.6562-0.6875z"/>

    </g></svg>